<?xml version="1.0" encoding="utf-8"?>
<!-- Generator: Adobe Illustrator 25.0.0, SVG Export Plug-In . SVG Version: 6.00 Build 0)  -->
<svg version="1.1" id="Layer_1" xmlns="http://www.w3.org/2000/svg" xmlns:xlink="http://www.w3.org/1999/xlink" x="0px" y="0px"
	 viewBox="0 0 512 512" style="enable-background:new 0 0 512 512;" xml:space="preserve">
<g>
	<path d="M436.4,144.9h-67.5l-40.4-40.8c0,0-0.2-0.2-0.3-0.2l-0.2-0.2l0,0c-6-6-14.1-9.8-23.3-9.8h-84c-9.8,0-18.5,4.2-24.6,10.9
		v0.1l-39.5,40h-69C69,144.9,54,159.5,54,178.1v202.1c0,18.6,15,33.7,33.6,33.7h348.8c18.5,0,33.6-15.1,33.6-33.7V178.1
		C470,159.5,454.9,144.9,436.4,144.9z M262,363.4c-50.9,0-92.4-41.6-92.4-92.6c0-51.1,41.5-92.6,92.4-92.6c51,0,92.4,41.5,92.4,92.6
		C354.4,321.8,313,363.4,262,363.4z M430.1,198.4c-7.7,0-14-6.3-14-14.1s6.3-14.1,14-14.1s14,6.3,14,14.1S437.8,198.4,430.1,198.4z"
		/>
	<path d="M262,200.8c-38.6,0-69.8,31.3-69.8,70c0,38.6,31.2,70,69.8,70c38.5,0,69.8-31.3,69.8-70S300.5,200.8,262,200.8z"/>
</g>
</svg>
