<?xml version="1.0" encoding="utf-8"?>
<!-- Generator: Adobe Illustrator 25.0.0, SVG Export Plug-In . SVG Version: 6.00 Build 0)  -->
<svg version="1.1" id="Layer_1_1_" xmlns="http://www.w3.org/2000/svg" xmlns:xlink="http://www.w3.org/1999/xlink" x="0px" y="0px"
	 viewBox="0 0 16 16" style="enable-background:new 0 0 16 16;" xml:space="preserve">
<style type="text/css">
	.st0{fill:#E2281A;}
</style>
<circle class="st0" cx="8" cy="8" r="4.5"/>
<path class="st0" d="M8,2.5L8,2.5c0.3,0,0.5-0.2,0.5-0.5V1c0-0.3-0.2-0.5-0.5-0.5h0C7.7,0.5,7.5,0.7,7.5,1v1C7.5,2.3,7.7,2.5,8,2.5z
	"/>
<path class="st0" d="M8,15.5L8,15.5c0.3,0,0.5-0.2,0.5-0.5v-1c0-0.3-0.2-0.5-0.5-0.5h0c-0.3,0-0.5,0.2-0.5,0.5v1
	C7.5,15.3,7.7,15.5,8,15.5z"/>
<path class="st0" d="M13.5,8L13.5,8c0,0.3,0.2,0.5,0.5,0.5h1c0.3,0,0.5-0.2,0.5-0.5v0c0-0.3-0.2-0.5-0.5-0.5h-1
	C13.7,7.5,13.5,7.7,13.5,8z"/>
<path class="st0" d="M0.5,8L0.5,8c0,0.3,0.2,0.5,0.5,0.5h1c0.3,0,0.5-0.2,0.5-0.5v0c0-0.3-0.2-0.5-0.5-0.5H1C0.7,7.5,0.5,7.7,0.5,8z
	"/>
<path class="st0" d="M11.9,4.1L11.9,4.1c0.2,0.2,0.5,0.2,0.7,0l0.7-0.7c0.2-0.2,0.2-0.5,0-0.7v0c-0.2-0.2-0.5-0.2-0.7,0l-0.7,0.7
	C11.7,3.6,11.7,3.9,11.9,4.1z"/>
<path class="st0" d="M2.7,13.3L2.7,13.3c0.2,0.2,0.5,0.2,0.7,0l0.7-0.7c0.2-0.2,0.2-0.5,0-0.7l0,0c-0.2-0.2-0.5-0.2-0.7,0l-0.7,0.7
	C2.5,12.8,2.5,13.1,2.7,13.3z"/>
<path class="st0" d="M11.9,11.9L11.9,11.9c-0.2,0.2-0.2,0.5,0,0.7l0.7,0.7c0.2,0.2,0.5,0.2,0.7,0l0,0c0.2-0.2,0.2-0.5,0-0.7
	l-0.7-0.7C12.4,11.7,12.1,11.7,11.9,11.9z"/>
<path class="st0" d="M2.7,2.7L2.7,2.7c-0.2,0.2-0.2,0.5,0,0.7l0.7,0.7c0.2,0.2,0.5,0.2,0.7,0l0,0c0.2-0.2,0.2-0.5,0-0.7L3.4,2.7
	C3.2,2.5,2.9,2.5,2.7,2.7z"/>
</svg>
