<?xml version="1.0" encoding="utf-8"?>
<!-- Generator: Adobe Illustrator 25.0.0, SVG Export Plug-In . SVG Version: 6.00 Build 0)  -->
<svg version="1.1" id="Layer_1" xmlns="http://www.w3.org/2000/svg" xmlns:xlink="http://www.w3.org/1999/xlink" x="0px" y="0px"
	 viewBox="0 0 382.7 382.7" style="enable-background:new 0 0 382.7 382.7;" xml:space="preserve">
<style type="text/css">
	.st0{fill:none;stroke:#000000;stroke-width:10;stroke-miterlimit:10;}
</style>
<path d="M286.9,283.9H95.7c-8.1,0-14.7-6.6-14.7-14.7v0c0-8.1,6.6-14.7,14.7-14.7h191.2c8.1,0,14.7,6.6,14.7,14.7v0
	C301.7,277.3,295.1,283.9,286.9,283.9z"/>
<path d="M286.9,206.1H95.7c-8.1,0-14.7-6.6-14.7-14.7v0c0-8.1,6.6-14.7,14.7-14.7h191.2c8.1,0,14.7,6.6,14.7,14.7v0
	C301.7,199.5,295.1,206.1,286.9,206.1z"/>
<path d="M286.9,128.2H95.7c-8.1,0-14.7-6.6-14.7-14.7v0c0-8.1,6.6-14.7,14.7-14.7h191.2c8.1,0,14.7,6.6,14.7,14.7v0
	C301.7,121.6,295.1,128.2,286.9,128.2z"/>
<path class="st0" d="M309.3,337.7H73.4c-15.7,0-28.5-12.7-28.5-28.5V73.4c0-15.7,12.7-28.5,28.5-28.5h235.8
	c15.7,0,28.5,12.7,28.5,28.5v235.8C337.7,325,325,337.7,309.3,337.7z"/>
</svg>
