<?xml version="1.0" encoding="utf-8"?>
<!-- Generator: Adobe Illustrator 25.0.0, SVG Export Plug-In . SVG Version: 6.00 Build 0)  -->
<svg version="1.1" id="Layer_1" xmlns="http://www.w3.org/2000/svg" xmlns:xlink="http://www.w3.org/1999/xlink" x="0px" y="0px"
	 viewBox="0 0 24 24" style="enable-background:new 0 0 24 24;" xml:space="preserve">
<style type="text/css">
	.st0{fill:#8342EA;}
</style>
<path class="st0" d="M20.2,15.3c-1.8,4.4-6.9,6.4-11.2,4.6S2.6,13,4.4,8.6c1.2-2.8,3.8-4.8,6.9-5.2c0.2,0,0.4,0.1,0.5,0.3
	s0.1,0.4-0.1,0.6C10.5,5.6,9.8,7.2,9.8,9c0,3.6,3,6.5,6.6,6.5c1.1,0,2.1-0.3,3.1-0.8c0.2-0.1,0.4-0.1,0.6,0.1
	C20.2,14.9,20.3,15.1,20.2,15.3z"/>
</svg>
